<?xml version="1.0" encoding="utf-8"?>
<!-- Generator: Adobe Illustrator 28.0.0, SVG Export Plug-In . SVG Version: 6.00 Build 0)  -->
<svg version="1.1" xmlns="http://www.w3.org/2000/svg" xmlns:xlink="http://www.w3.org/1999/xlink" x="0px" y="0px"
	 viewBox="0 0 256 256" style="enable-background:new 0 0 256 256;" xml:space="preserve">
<style type="text/css">
	.st0{fill:#FFE011;}
	.st1{fill:#FFFFFF;}
</style>
<g id="Layer_2">
	<path class="st0" d="M42.1,132.2c0.9-3.4,2.3-6.2,4.2-9.4c4.7-7.7,5.6-12.3,13.7-16.1c7.1-3.3,16.7-6.3,24.3-8.4
		c6-1.6,15.1-5.7,19.5-10.4c6.4-6.7,6.4-11.3,0.4-18.1c-3-3.5-2.4-4.7-7-4.8c-8.1-0.2-15.8-1.7-23.9-1.8c-7.2,0-18.7,1.5-25.9,1.2
		C37.8,64,28.7,52.1,29.3,42.5c0.2-3.2,2.7-9,4.5-11.6c9.2-13.3,25.6-19.9,41-24c20.3-5.4,39.3-2.3,56.4,10.2
		c9,6.6,15.6,15.3,19.8,25.7c5.9,14.7,6.5,29.9,3.9,45.3c-2.2,12.9-9.6,22.9-19.9,30.8c-2,1.5-4,3-5.9,4.7
		c-4.7,4.1-7.1,9.2-6.8,15.5c0.1,3.3,1.2,6.1,3.1,8.8c0.4,0.6,0.8,1.4,1.5,2.4c-1.4,0.1-2,3.1-3,3.1c-20.7,1.2-43.4-0.8-65.4-0.8
		c-2.3,0-5.5,0.9-7.8,0.8c-0.8,0-7.7-1.9-8-2.5c-2.4-5.3-4.1-7.7-2.6-13.4L42.1,132.2z M26.4,181.3c0.3-6,1.6-11.7,5.8-16.4
		c4.5-5.2,10-8.6,16.6-8.8c12.2-0.4,24.4-0.3,36.5-0.4c7.8,0,15.6,0,23.3,0v0c18,0,36,0,54,0c15.4,0,27.1,12,27,27.9
		c0,7.6-3.2,13.7-9.5,17.7c-0.7,0.5-1.7,0.8-2.6,0.7c-5.6,0-11.2-0.2-16.9-0.2c-26.8,0-53.5,0-80.3,0.1c-14.1,0-28.2,0.1-42.4,0.1
		c-1,0-2-0.4-2.9-1C28.4,196.4,26,189.4,26.4,181.3L26.4,181.3z M187,247.8c-2,1.9-4.4,2.8-7.1,3.7c-2.7,0.9-5.3,1.2-8,1.3
		c-4.8,0.1-9.6,0.1-14.3,0.1c-16.8,0-33.6,0-50.4,0v0.2c-12.4,0-24.8,0-37.2,0c-10.5,0-20.9,0-31.4-0.3c-8-0.2-13.7-4.5-17.6-11.4
		c-4.1-7.1-4.3-14.6-1.6-22c2.8-7.7,8.6-12.6,16.7-14.3c2.6-0.5,5.3-0.7,7.9-0.7c36.3,0,72.5,0.1,108.8,0.2c7,0,14-0.4,20.9,0.1
		c11.3,0.8,19.8,9.7,21.1,21.1C195.6,234.4,193.4,241.9,187,247.8L187,247.8z M226.8,242.2c-5.4,5.9-12.3,9.8-20.1,11.7
		c-1.5,0.4-3,0.5-4.6,0.5c-4.3,0.1-8.6,0-12.8,0c-0.8,0-1.6-0.1-2.9-0.2c0.6-0.8-0.4-2.3,0-2.7c4.2-4.2,8.1-8.4,9.2-14.2
		c0.4-2.1,1.7-5.6,3.9-5.7c8.4-0.3,13.2-0.9,19.3-6.6c6-5.6,12.3-12.6,14.3-20.7c1.8-7.3,1.9-14.6,0.3-21.9c-0.2-0.7-0.3-1.4-0.4-2
		c0.3-0.1,0.6-0.2,0.9-0.4c1.5,3.3,3.5,6.4,4.4,9.8C243.6,209.3,240.7,227.1,226.8,242.2L226.8,242.2z"/>
	<path d="M71.2,28.9c-4.7,0-8.4,3.8-8.4,8.6c0,4.8,3.7,8.6,8.4,8.6c4.8,0,8.4-3.6,8.4-8.5C79.5,32.8,75.8,28.9,71.2,28.9L71.2,28.9z
		 M69.2,35.5c-1.2-0.2-2.1-0.9-2.1-2.3c-0.1-1.2,1.2-2.4,2.4-2.3c1.4,0.2,2.1,1.1,2.1,2.4C71.7,34.5,70.5,35.5,69.2,35.5z"/>
	<path class="st1" d="M69.6,30.9c-1.2-0.1-2.5,1-2.4,2.3c0.1,1.4,0.9,2.1,2.1,2.3c1.3,0,2.5-1,2.5-2.2C71.6,32,70.9,31.1,69.6,30.9z
		"/>
	<path d="M216.1,254.5H23.4c-0.5,0-0.9-0.4-0.9-0.9l0,0c0-0.5,0.4-0.9,0.9-2.1h192.7c0.5,1.1,0.9,1.6,0.9,2.1l0,0
		C217.1,254.1,216.6,254.5,216.1,254.5z"/>
</g>
<g id="Layer_1">
	<g>
		<path d="M240.1,188c-1.1-3.2-3.2-6.1-5-9c-0.7-1.1-2-1.9-3.4-1.2c-1.4,0.7-1.3,2-1.1,3.3c0.2,0.9,0.4,1.7,0.5,2.6
			c0.4,3.8,1.2,7.6,1.1,11.4c-0.5,10.7-4.9,19.7-12.8,27.1c-5.6,5.2-12.1,8.3-19.9,8.2c-1.7,0-2.4-0.7-2.4-2.3c0-1.1,0-2.3-0.2-3.4
			c-1.6-8.3-5.3-15.3-12.4-20.2c-1.8-1.2-1.6-1.3-0.2-3c1.7-2,3.5-4.1,4.5-6.4c4.4-10.5,3.9-20.9-2.6-30.4
			c-5.9-8.6-14.2-13.3-24.9-13.3c-6.8,0-13.6,0.1-20.4,0c-2.4-0.1-4.9-0.3-7.2-1.1c-11.2-3.4-11.2-15.3-5.1-21
			c2.6-2.4,5.4-4.8,8.2-7c11.2-8.8,17.9-20.3,20.3-34.2c2.1-12.7,1.5-25.3-1.6-37.8c-3.7-14.8-11.5-27-23.5-36.1
			C113.8,0.5,93.3-3.1,71.4,2.6c-17,4.4-31.4,13-41.5,27.9c-5.5,8.2-7.1,20,1.7,28.6c2.8,2.7,2.7,2.9,0.4,6.1
			c-0.4,0.5-0.8,1-1.2,1.4c-3.3,3.7-7.6,5.7-12.2,7c-1.3,0.4-2.6,0.8-3.8,1.2c2.1,2,4.7,1.3,7.3,1.9c-0.8,2-1.5,3.8-2.2,5.6l0.6,0.5
			c3.6-3.3,7.1-6.6,10.7-9.9c0.1,0.1,0.3,0.1,0.5,0.2c-0.7,4.6,0,9,1.3,13.3c0.3,0,0.6,0,0.8,0c0.1-1.5,0.3-2.9,0.4-4.4
			c0.4-5.3,1.3-10.5,3.4-15.4c0.9-2.2,1.3-2.2,3.6-1.6c3,0.7,6.1,1.5,9.2,1.6c7.5,0.2,15,0.1,22.4,0.1c6.3,0,12.7-0.1,19.1,0.1
			c4.5,0.1,8.5,1.8,10.6,6.1c2.2,4.5,1.6,8.9-1.4,12.9c-2.3,3.1-5.3,5.2-8.9,6.4c-7.7,2.7-15.4,5.2-23,7.8
			c-8,2.8-14.8,7.3-20.6,13.5c-7.1,7.7-11,16.6-11,27.1c0,3.8,0.9,7.5,2.5,10.9c0.5,1.1,0.8,2.2-0.7,3c-7,3.8-12.1,9.3-14.8,16.9
			c-3.8,10.5-2.4,20.1,5,28.7c1.7,2,1.7,2.6-0.6,3.8c-11.4,5.9-17.5,20.6-13.7,32.9c1.6,5.3,4.4,9.8,8.4,13.7c0.5,0.4,0.7,1.1,1,1.7
			c-0.7,0.2-1.3,0.6-2,0.7l194.3,0.1c1.3-0.8,2.1-1.4,2.9-1.9c5.9-3.9,11.5-8.2,15.3-14.3C244.6,221.4,246.1,205,240.1,188
			L240.1,188z M43.2,133.9c0.9-3.4,1.4-6.8,3.3-9.9c4.7-7.7,11-13.4,19.2-17.2c7.2-3.3,14.7-5.6,22.3-7.7c6-1.6,11.7-3.8,16.2-8.4
			c6.4-6.7,6.9-16.8,0.9-23.7c-3-3.5-7.1-5.3-11.7-5.4c-8.1-0.2-16.2,0-24.3-0.1c-7.2,0-14.3,0-21.5-0.3c-9.7-0.4-17.6-9-16.9-18.6
			c0.2-3.2,1.4-6.8,3.2-9.5c9.2-13.3,22.3-21.2,37.7-25.3c20.3-5.4,39.3-2.3,56.4,10.2c9,6.6,15.6,15.3,19.8,25.7
			c5.9,14.7,6.5,29.9,3.9,45.3c-2.2,12.9-9.6,22.9-19.9,30.8c-2,1.5-4,3-5.9,4.7c-4.7,4.1-7.1,9.2-6.8,15.5c0.1,3.3,1.2,6.1,3.1,8.8
			c0.4,0.6,0.8,1.4,1.5,2.4c-1.4,0.1-2.4,0.3-3.5,0.3c-21.9,0-43.9,0-65.8,0.1c-2.3,0-4.6,0.3-7,0.2c-0.8,0-1.9-0.6-2.2-1.2
			C42.6,145.2,41.8,139.7,43.2,133.9L43.2,133.9z M28,180.6c0.2-5.6,1.6-11,5.6-15.4c4.4-4.9,9.7-8.1,16.1-8.3
			c11.8-0.4,23.6-0.3,35.4-0.4c7.5,0,15.1,0,22.6,0v0c17.5,0,35,0,52.4,0c14.9,0,26.3,11.3,26.2,26.3c0,7.1-3.1,12.9-9.2,16.7
			c-0.7,0.4-1.6,0.7-2.5,0.7c-5.5,0-10.9-0.2-16.4-0.2c-26,0-51.9,0-77.9,0.1c-13.7,0-27.4,0.1-41.1,0.1c-0.9,0-2-0.4-2.8-0.9
			C29.9,194.8,27.6,188.2,28,180.6L28,180.6z M184,247c-1.9,1.8-4.3,2.7-6.9,3.5c-2.6,0.8-5.2,1.2-7.8,1.2
			c-4.6,0.1-9.3,0.1-13.9,0.1c-16.3,0-32.7,0-49,0v0.1c-12.1,0-24.1,0-36.2,0c-10.2,0-20.4,0-30.5-0.2c-7.8-0.2-13.3-4.3-17.1-10.9
			c-3.9-6.8-4.2-14-1.5-21.1c2.7-7.4,8.4-12.1,16.2-13.7c2.5-0.5,5.1-0.7,7.7-0.7c35.3,0,70.5,0.1,105.8,0.2
			c6.8,0,13.6-0.4,20.4,0.1c11,0.7,19.3,9.3,20.5,20.2C192.3,234.1,190.2,241.2,184,247L184,247z M227,240.7
			c-5.4,5.7-12.1,9.4-19.7,11.3c-1.4,0.4-3,0.5-4.5,0.5c-4.2,0.1-8.4,0-12.6,0c-0.8,0-1.6-0.1-2.8-0.2c0.6-0.8,0.9-1.3,1.4-1.7
			c4.1-4.1,6.6-9,7.7-14.6c0.4-2,1.3-2.8,3.4-2.8c8.2-0.3,15.4-3.5,21.4-9c5.9-5.4,10-12.1,12-19.9c1.8-7,1.9-14,0.3-21.1
			c-0.1-0.6-0.3-1.3-0.4-2c0.3-0.1,0.6-0.2,0.9-0.3c1.5,3.1,3.4,6.1,4.3,9.4C243.6,209,240.7,226.2,227,240.7L227,240.7z"/>
		<path d="M71.2,30.4c-4.7,0-8.4,3.8-8.4,8.6c0,4.8,3.7,8.6,8.4,8.6c4.8,0,8.4-3.6,8.4-8.5C79.5,34.3,75.8,30.4,71.2,30.4L71.2,30.4
			z M69.2,37c-1.2-0.2-2.1-0.9-2.1-2.3c-0.1-1.2,1.2-2.4,2.4-2.3c1.4,0.2,2.1,1.1,2.1,2.4C71.7,36,70.5,37,69.2,37z"/>
		<path class="st1" d="M69.6,32.4c-1.2-0.1-2.5,1-2.4,2.3c0.1,1.4,0.9,2.1,2.1,2.3c1.3,0,2.5-1,2.5-2.2
			C71.6,33.5,70.9,32.6,69.6,32.4z"/>
	</g>
	<path d="M216.1,256H23.4c-0.5,0-0.9-0.4-0.9-0.9l0,0c0-0.5,0.4-0.9,0.9-2.1h192.7c0.5,1.1,0.9,1.6,0.9,2.1l0,0
		C217.1,255.6,216.6,256,216.1,256z"/>
</g>
</svg>
