<?xml version="1.0" encoding="UTF-8"?>
<svg id="Layer_1" data-name="Layer 1" xmlns="http://www.w3.org/2000/svg" viewBox="0 0 256 256">
  <defs>
    <style>
      .cls-1, .cls-2 {
        stroke-width: 0px;
      }

      .cls-2 {
        fill: #fff;
      }
    </style>
  </defs>
  <g>
    <path class="cls-1" d="m240.1,187.96c-1.13-3.2-3.2-6.08-5.01-9.01-.71-1.15-1.97-1.87-3.43-1.17-1.44.68-1.33,1.98-1.08,3.27.17.86.45,1.71.54,2.58.41,3.8,1.23,7.62,1.06,11.4-.47,10.73-4.86,19.74-12.78,27.06-5.63,5.21-12.06,8.29-19.85,8.22-1.7-.01-2.4-.67-2.38-2.34.02-1.13,0-2.28-.21-3.38-1.56-8.29-5.3-15.26-12.37-20.19-1.77-1.23-1.61-1.3-.22-2.98,1.68-2.01,3.53-4.07,4.52-6.43,4.41-10.51,3.93-20.85-2.62-30.35-5.93-8.6-14.23-13.28-24.89-13.27-6.79,0-13.58.1-20.37-.04-2.42-.05-4.93-.34-7.24-1.05-11.18-3.45-11.16-15.3-5.1-20.98,2.61-2.44,5.37-4.75,8.18-6.96,11.19-8.8,17.92-20.3,20.28-34.23,2.14-12.66,1.52-25.28-1.61-37.78-3.7-14.77-11.49-27-23.54-36.11C113.84.51,93.35-3.12,71.44,2.61c-16.95,4.44-31.39,12.99-41.47,27.87-5.55,8.2-7.14,20,1.7,28.64,2.8,2.74,2.7,2.86.41,6.1-.36.51-.79.98-1.2,1.45-3.28,3.74-7.56,5.73-12.25,7.03-1.29.36-2.56.78-3.83,1.18,2.12,2.01,4.71,1.27,7.28,1.92-.79,1.99-1.51,3.79-2.22,5.59l.63.48c3.57-3.29,7.14-6.59,10.72-9.88.15.07.3.14.45.22-.67,4.6.03,9.01,1.3,13.33.28-.01.56-.03.83-.04.14-1.47.32-2.94.42-4.41.37-5.3,1.31-10.47,3.36-15.4.91-2.18,1.3-2.18,3.59-1.63,3.03.73,6.13,1.49,9.22,1.58,7.48.23,14.96.07,22.44.08,6.35,0,12.71-.12,19.05.08,4.49.14,8.48,1.76,10.56,6.08,2.17,4.51,1.62,8.88-1.43,12.95-2.31,3.09-5.31,5.18-8.88,6.42-7.66,2.66-15.36,5.17-23.03,7.81-8,2.76-14.83,7.29-20.59,13.52-7.08,7.67-11.04,16.56-11.03,27.08,0,3.83.9,7.47,2.53,10.94.53,1.14.81,2.16-.72,2.98-7.01,3.78-12.12,9.27-14.84,16.86-3.78,10.51-2.37,20.13,4.95,28.72,1.73,2.03,1.69,2.57-.6,3.77-11.38,5.95-17.48,20.64-13.71,32.91,1.62,5.28,4.38,9.84,8.37,13.67.46.44.68,1.12,1.01,1.69-.66.23-1.32.64-1.99.66l194.26.13c1.3-.84,2.12-1.38,2.93-1.91,5.94-3.87,11.47-8.24,15.28-14.33,9.65-15.39,11.19-31.75,5.16-48.78Zm-196.89-54.02c.87-3.39,1.41-6.79,3.31-9.93,4.67-7.73,11.02-13.43,19.17-17.24,7.15-3.34,14.68-5.61,22.26-7.66,6.03-1.63,11.72-3.77,16.16-8.43,6.4-6.73,6.87-16.84.88-23.68-3.04-3.47-7.08-5.33-11.65-5.43-8.1-.19-16.22-.05-24.32-.1-7.17-.04-14.34.04-21.5-.28-9.68-.44-17.62-9.03-16.93-18.62.23-3.24,1.39-6.81,3.23-9.46,9.23-13.27,22.28-21.23,37.7-25.32,20.33-5.4,39.33-2.32,56.41,10.19,9,6.6,15.6,15.27,19.78,25.68,5.89,14.69,6.51,29.94,3.88,45.27-2.22,12.92-9.62,22.89-19.94,30.77-2,1.53-4.02,3.04-5.91,4.69-4.66,4.08-7.07,9.18-6.85,15.47.11,3.27,1.25,6.12,3.1,8.75.45.65.83,1.35,1.49,2.45-1.42.11-2.44.27-3.46.27-21.95.03-43.89.03-65.83.06-2.32,0-4.64.3-6.96.24-.76-.02-1.92-.56-2.2-1.17-2.39-5.29-3.28-10.77-1.81-16.51Zm-15.26,46.7c.25-5.64,1.59-10.97,5.6-15.44,4.39-4.89,9.67-8.05,16.15-8.27,11.8-.4,23.63-.31,35.44-.37,7.54-.04,15.09,0,22.63,0v-.03c17.48,0,34.95-.01,52.43,0,14.93.01,26.31,11.31,26.24,26.28-.03,7.13-3.07,12.85-9.24,16.68-.71.44-1.65.71-2.48.7-5.46-.01-10.91-.19-16.37-.19-25.96,0-51.93.04-77.89.07-13.7.02-27.41.08-41.11.06-.93,0-1.98-.41-2.77-.93-6.7-4.38-8.98-10.97-8.64-18.55Zm156.01,66.34c-1.95,1.8-4.27,2.71-6.88,3.52-2.63.82-5.16,1.2-7.81,1.24-4.64.06-9.29.05-13.93.05-16.34,0-32.68,0-49.02,0v.15c-12.06,0-24.13.03-36.19,0-10.18-.03-20.36,0-30.53-.25-7.81-.18-13.32-4.33-17.14-10.92-3.94-6.78-4.17-14.04-1.54-21.13,2.74-7.38,8.36-12.08,16.2-13.69,2.5-.51,5.12-.66,7.68-.66,35.26.03,70.53.12,105.79.19,6.78.01,13.59-.37,20.35.08,10.98.73,19.28,9.29,20.48,20.25.91,8.29-1.25,15.44-7.45,21.16Zm43.06-6.31c-5.35,5.68-12.08,9.4-19.73,11.26-1.45.35-2.98.48-4.48.5-4.21.07-8.42.04-12.63.03-.79,0-1.58-.13-2.81-.24.62-.78.94-1.28,1.35-1.69,4.12-4.06,6.62-8.98,7.67-14.63.37-1.99,1.27-2.78,3.41-2.84,8.25-.26,15.4-3.49,21.44-8.98,5.94-5.4,10.01-12.07,12.01-19.89,1.79-6.99,1.85-14.04.27-21.09-.15-.65-.26-1.31-.39-1.96.28-.11.57-.23.85-.34,1.47,3.14,3.41,6.15,4.34,9.45,5.28,18.78,2.36,35.92-11.3,50.43Z"/>
    <path class="cls-1" d="m71.16,30.36c-4.65-.05-8.41,3.78-8.42,8.56,0,4.79,3.7,8.59,8.36,8.58,4.83-.01,8.43-3.64,8.42-8.48,0-4.75-3.75-8.62-8.37-8.66Zm-1.94,6.64c-1.22-.21-2.05-.94-2.11-2.32-.06-1.24,1.21-2.41,2.45-2.27,1.39.16,2.08,1.07,2.12,2.41.04,1.16-1.17,2.23-2.46,2.18Z"/>
    <path class="cls-2" d="m69.55,32.41c-1.24-.14-2.51,1.03-2.45,2.27.07,1.38.9,2.11,2.11,2.32,1.29.05,2.5-1.02,2.46-2.18-.04-1.34-.73-2.25-2.12-2.41Z"/>
  </g>
  <path class="cls-1" d="m216.14,256H23.4c-.51,0-.92-.41-.92-.92h0c0-.51.41-.92.92-2.06h192.74c.51,1.13.92,1.55.92,2.06h0c0,.51-.41.92-.92.92Z"/>
</svg>