<?xml version="1.0" encoding="utf-8" standalone="no"?>
<!DOCTYPE svg PUBLIC "-//W3C//DTD SVG 1.1//EN"
  "http://www.w3.org/Graphics/SVG/1.1/DTD/svg11.dtd">
<svg xmlns:xlink="http://www.w3.org/1999/xlink" width="460.8pt" height="345.6pt" viewBox="0 0 460.8 345.6" xmlns="http://www.w3.org/2000/svg" version="1.1">
 <metadata>
  <rdf:RDF xmlns:dc="http://purl.org/dc/elements/1.1/" xmlns:cc="http://creativecommons.org/ns#" xmlns:rdf="http://www.w3.org/1999/02/22-rdf-syntax-ns#">
   <cc:Work>
    <dc:type rdf:resource="http://purl.org/dc/dcmitype/StillImage"/>
    <dc:date>2023-09-02T19:06:27.082845</dc:date>
    <dc:format>image/svg+xml</dc:format>
    <dc:creator>
     <cc:Agent>
      <dc:title>Matplotlib v3.7.2, https://matplotlib.org/</dc:title>
     </cc:Agent>
    </dc:creator>
   </cc:Work>
  </rdf:RDF>
 </metadata>
 <defs>
  <style type="text/css">*{stroke-linejoin: round; stroke-linecap: butt}</style>
 </defs>
 <g id="figure_1">
  <g id="patch_1">
   <path d="M 0 345.6 
L 460.8 345.6 
L 460.8 0 
L 0 0 
z
" style="fill: #ffffff"/>
  </g>
  <g id="axes_1">
   <g id="patch_2">
    <path d="M 47.855 303.64 
L 450 303.64 
L 450 26.16 
L 47.855 26.16 
z
" style="fill: #ffffff"/>
   </g>
   <g id="matplotlib.axis_1">
    <g id="xtick_1">
     <g id="line2d_1">
      <defs>
       <path id="md052cb1228" d="M 0 0 
L 0 3.5 
" style="stroke: #000000; stroke-width: 0.8"/>
      </defs>
      <g>
       <use xlink:href="#md052cb1228" x="102.692955" y="303.64" style="stroke: #000000; stroke-width: 0.8"/>
      </g>
     </g>
     <g id="text_1">
      <!-- −4 -->
      <g transform="translate(95.321861 318.238437) scale(0.1 -0.1)">
       <defs>
        <path id="DejaVuSans-2212" d="M 678 2272 
L 4684 2272 
L 4684 1741 
L 678 1741 
L 678 2272 
z
" transform="scale(0.015625)"/>
        <path id="DejaVuSans-34" d="M 2419 4116 
L 825 1625 
L 2419 1625 
L 2419 4116 
z
M 2253 4666 
L 3047 4666 
L 3047 1625 
L 3713 1625 
L 3713 1100 
L 3047 1100 
L 3047 0 
L 2419 0 
L 2419 1100 
L 313 1100 
L 313 1709 
L 2253 4666 
z
" transform="scale(0.015625)"/>
       </defs>
       <use xlink:href="#DejaVuSans-2212"/>
       <use xlink:href="#DejaVuSans-34" x="83.789062"/>
      </g>
     </g>
    </g>
    <g id="xtick_2">
     <g id="line2d_2">
      <g>
       <use xlink:href="#md052cb1228" x="175.810227" y="303.64" style="stroke: #000000; stroke-width: 0.8"/>
      </g>
     </g>
     <g id="text_2">
      <!-- −2 -->
      <g transform="translate(168.439134 318.238437) scale(0.1 -0.1)">
       <defs>
        <path id="DejaVuSans-32" d="M 1228 531 
L 3431 531 
L 3431 0 
L 469 0 
L 469 531 
Q 828 903 1448 1529 
Q 2069 2156 2228 2338 
Q 2531 2678 2651 2914 
Q 2772 3150 2772 3378 
Q 2772 3750 2511 3984 
Q 2250 4219 1831 4219 
Q 1534 4219 1204 4116 
Q 875 4013 500 3803 
L 500 4441 
Q 881 4594 1212 4672 
Q 1544 4750 1819 4750 
Q 2544 4750 2975 4387 
Q 3406 4025 3406 3419 
Q 3406 3131 3298 2873 
Q 3191 2616 2906 2266 
Q 2828 2175 2409 1742 
Q 1991 1309 1228 531 
z
" transform="scale(0.015625)"/>
       </defs>
       <use xlink:href="#DejaVuSans-2212"/>
       <use xlink:href="#DejaVuSans-32" x="83.789062"/>
      </g>
     </g>
    </g>
    <g id="xtick_3">
     <g id="line2d_3">
      <g>
       <use xlink:href="#md052cb1228" x="248.9275" y="303.64" style="stroke: #000000; stroke-width: 0.8"/>
      </g>
     </g>
     <g id="text_3">
      <!-- 0 -->
      <g transform="translate(245.74625 318.238437) scale(0.1 -0.1)">
       <defs>
        <path id="DejaVuSans-30" d="M 2034 4250 
Q 1547 4250 1301 3770 
Q 1056 3291 1056 2328 
Q 1056 1369 1301 889 
Q 1547 409 2034 409 
Q 2525 409 2770 889 
Q 3016 1369 3016 2328 
Q 3016 3291 2770 3770 
Q 2525 4250 2034 4250 
z
M 2034 4750 
Q 2819 4750 3233 4129 
Q 3647 3509 3647 2328 
Q 3647 1150 3233 529 
Q 2819 -91 2034 -91 
Q 1250 -91 836 529 
Q 422 1150 422 2328 
Q 422 3509 836 4129 
Q 1250 4750 2034 4750 
z
" transform="scale(0.015625)"/>
       </defs>
       <use xlink:href="#DejaVuSans-30"/>
      </g>
     </g>
    </g>
    <g id="xtick_4">
     <g id="line2d_4">
      <g>
       <use xlink:href="#md052cb1228" x="322.044773" y="303.64" style="stroke: #000000; stroke-width: 0.8"/>
      </g>
     </g>
     <g id="text_4">
      <!-- 2 -->
      <g transform="translate(318.863523 318.238437) scale(0.1 -0.1)">
       <use xlink:href="#DejaVuSans-32"/>
      </g>
     </g>
    </g>
    <g id="xtick_5">
     <g id="line2d_5">
      <g>
       <use xlink:href="#md052cb1228" x="395.162045" y="303.64" style="stroke: #000000; stroke-width: 0.8"/>
      </g>
     </g>
     <g id="text_5">
      <!-- 4 -->
      <g transform="translate(391.980795 318.238437) scale(0.1 -0.1)">
       <use xlink:href="#DejaVuSans-34"/>
      </g>
     </g>
    </g>
    <g id="text_6">
     <!-- x -->
     <g transform="translate(245.968125 331.916562) scale(0.1 -0.1)">
      <defs>
       <path id="DejaVuSans-78" d="M 3513 3500 
L 2247 1797 
L 3578 0 
L 2900 0 
L 1881 1375 
L 863 0 
L 184 0 
L 1544 1831 
L 300 3500 
L 978 3500 
L 1906 2253 
L 2834 3500 
L 3513 3500 
z
" transform="scale(0.015625)"/>
      </defs>
      <use xlink:href="#DejaVuSans-78"/>
     </g>
    </g>
   </g>
   <g id="matplotlib.axis_2">
    <g id="ytick_1">
     <g id="line2d_6">
      <defs>
       <path id="m981cbf26a8" d="M 0 0 
L -3.5 0 
" style="stroke: #000000; stroke-width: 0.8"/>
      </defs>
      <g>
       <use xlink:href="#m981cbf26a8" x="47.855" y="291.027273" style="stroke: #000000; stroke-width: 0.8"/>
      </g>
     </g>
     <g id="text_7">
      <!-- 0.0 -->
      <g transform="translate(24.951875 294.826491) scale(0.1 -0.1)">
       <defs>
        <path id="DejaVuSans-2e" d="M 684 794 
L 1344 794 
L 1344 0 
L 684 0 
L 684 794 
z
" transform="scale(0.015625)"/>
       </defs>
       <use xlink:href="#DejaVuSans-30"/>
       <use xlink:href="#DejaVuSans-2e" x="63.623047"/>
       <use xlink:href="#DejaVuSans-30" x="95.410156"/>
      </g>
     </g>
    </g>
    <g id="ytick_2">
     <g id="line2d_7">
      <g>
       <use xlink:href="#m981cbf26a8" x="47.855" y="259.41027" style="stroke: #000000; stroke-width: 0.8"/>
      </g>
     </g>
     <g id="text_8">
      <!-- 0.1 -->
      <g transform="translate(24.951875 263.209489) scale(0.1 -0.1)">
       <defs>
        <path id="DejaVuSans-31" d="M 794 531 
L 1825 531 
L 1825 4091 
L 703 3866 
L 703 4441 
L 1819 4666 
L 2450 4666 
L 2450 531 
L 3481 531 
L 3481 0 
L 794 0 
L 794 531 
z
" transform="scale(0.015625)"/>
       </defs>
       <use xlink:href="#DejaVuSans-30"/>
       <use xlink:href="#DejaVuSans-2e" x="63.623047"/>
       <use xlink:href="#DejaVuSans-31" x="95.410156"/>
      </g>
     </g>
    </g>
    <g id="ytick_3">
     <g id="line2d_8">
      <g>
       <use xlink:href="#m981cbf26a8" x="47.855" y="227.793267" style="stroke: #000000; stroke-width: 0.8"/>
      </g>
     </g>
     <g id="text_9">
      <!-- 0.2 -->
      <g transform="translate(24.951875 231.592486) scale(0.1 -0.1)">
       <use xlink:href="#DejaVuSans-30"/>
       <use xlink:href="#DejaVuSans-2e" x="63.623047"/>
       <use xlink:href="#DejaVuSans-32" x="95.410156"/>
      </g>
     </g>
    </g>
    <g id="ytick_4">
     <g id="line2d_9">
      <g>
       <use xlink:href="#m981cbf26a8" x="47.855" y="196.176264" style="stroke: #000000; stroke-width: 0.8"/>
      </g>
     </g>
     <g id="text_10">
      <!-- 0.3 -->
      <g transform="translate(24.951875 199.975483) scale(0.1 -0.1)">
       <defs>
        <path id="DejaVuSans-33" d="M 2597 2516 
Q 3050 2419 3304 2112 
Q 3559 1806 3559 1356 
Q 3559 666 3084 287 
Q 2609 -91 1734 -91 
Q 1441 -91 1130 -33 
Q 819 25 488 141 
L 488 750 
Q 750 597 1062 519 
Q 1375 441 1716 441 
Q 2309 441 2620 675 
Q 2931 909 2931 1356 
Q 2931 1769 2642 2001 
Q 2353 2234 1838 2234 
L 1294 2234 
L 1294 2753 
L 1863 2753 
Q 2328 2753 2575 2939 
Q 2822 3125 2822 3475 
Q 2822 3834 2567 4026 
Q 2313 4219 1838 4219 
Q 1578 4219 1281 4162 
Q 984 4106 628 3988 
L 628 4550 
Q 988 4650 1302 4700 
Q 1616 4750 1894 4750 
Q 2613 4750 3031 4423 
Q 3450 4097 3450 3541 
Q 3450 3153 3228 2886 
Q 3006 2619 2597 2516 
z
" transform="scale(0.015625)"/>
       </defs>
       <use xlink:href="#DejaVuSans-30"/>
       <use xlink:href="#DejaVuSans-2e" x="63.623047"/>
       <use xlink:href="#DejaVuSans-33" x="95.410156"/>
      </g>
     </g>
    </g>
    <g id="ytick_5">
     <g id="line2d_10">
      <g>
       <use xlink:href="#m981cbf26a8" x="47.855" y="164.559262" style="stroke: #000000; stroke-width: 0.8"/>
      </g>
     </g>
     <g id="text_11">
      <!-- 0.4 -->
      <g transform="translate(24.951875 168.35848) scale(0.1 -0.1)">
       <use xlink:href="#DejaVuSans-30"/>
       <use xlink:href="#DejaVuSans-2e" x="63.623047"/>
       <use xlink:href="#DejaVuSans-34" x="95.410156"/>
      </g>
     </g>
    </g>
    <g id="ytick_6">
     <g id="line2d_11">
      <g>
       <use xlink:href="#m981cbf26a8" x="47.855" y="132.942259" style="stroke: #000000; stroke-width: 0.8"/>
      </g>
     </g>
     <g id="text_12">
      <!-- 0.5 -->
      <g transform="translate(24.951875 136.741478) scale(0.1 -0.1)">
       <defs>
        <path id="DejaVuSans-35" d="M 691 4666 
L 3169 4666 
L 3169 4134 
L 1269 4134 
L 1269 2991 
Q 1406 3038 1543 3061 
Q 1681 3084 1819 3084 
Q 2600 3084 3056 2656 
Q 3513 2228 3513 1497 
Q 3513 744 3044 326 
Q 2575 -91 1722 -91 
Q 1428 -91 1123 -41 
Q 819 9 494 109 
L 494 744 
Q 775 591 1075 516 
Q 1375 441 1709 441 
Q 2250 441 2565 725 
Q 2881 1009 2881 1497 
Q 2881 1984 2565 2268 
Q 2250 2553 1709 2553 
Q 1456 2553 1204 2497 
Q 953 2441 691 2322 
L 691 4666 
z
" transform="scale(0.015625)"/>
       </defs>
       <use xlink:href="#DejaVuSans-30"/>
       <use xlink:href="#DejaVuSans-2e" x="63.623047"/>
       <use xlink:href="#DejaVuSans-35" x="95.410156"/>
      </g>
     </g>
    </g>
    <g id="ytick_7">
     <g id="line2d_12">
      <g>
       <use xlink:href="#m981cbf26a8" x="47.855" y="101.325256" style="stroke: #000000; stroke-width: 0.8"/>
      </g>
     </g>
     <g id="text_13">
      <!-- 0.6 -->
      <g transform="translate(24.951875 105.124475) scale(0.1 -0.1)">
       <defs>
        <path id="DejaVuSans-36" d="M 2113 2584 
Q 1688 2584 1439 2293 
Q 1191 2003 1191 1497 
Q 1191 994 1439 701 
Q 1688 409 2113 409 
Q 2538 409 2786 701 
Q 3034 994 3034 1497 
Q 3034 2003 2786 2293 
Q 2538 2584 2113 2584 
z
M 3366 4563 
L 3366 3988 
Q 3128 4100 2886 4159 
Q 2644 4219 2406 4219 
Q 1781 4219 1451 3797 
Q 1122 3375 1075 2522 
Q 1259 2794 1537 2939 
Q 1816 3084 2150 3084 
Q 2853 3084 3261 2657 
Q 3669 2231 3669 1497 
Q 3669 778 3244 343 
Q 2819 -91 2113 -91 
Q 1303 -91 875 529 
Q 447 1150 447 2328 
Q 447 3434 972 4092 
Q 1497 4750 2381 4750 
Q 2619 4750 2861 4703 
Q 3103 4656 3366 4563 
z
" transform="scale(0.015625)"/>
       </defs>
       <use xlink:href="#DejaVuSans-30"/>
       <use xlink:href="#DejaVuSans-2e" x="63.623047"/>
       <use xlink:href="#DejaVuSans-36" x="95.410156"/>
      </g>
     </g>
    </g>
    <g id="ytick_8">
     <g id="line2d_13">
      <g>
       <use xlink:href="#m981cbf26a8" x="47.855" y="69.708253" style="stroke: #000000; stroke-width: 0.8"/>
      </g>
     </g>
     <g id="text_14">
      <!-- 0.7 -->
      <g transform="translate(24.951875 73.507472) scale(0.1 -0.1)">
       <defs>
        <path id="DejaVuSans-37" d="M 525 4666 
L 3525 4666 
L 3525 4397 
L 1831 0 
L 1172 0 
L 2766 4134 
L 525 4134 
L 525 4666 
z
" transform="scale(0.015625)"/>
       </defs>
       <use xlink:href="#DejaVuSans-30"/>
       <use xlink:href="#DejaVuSans-2e" x="63.623047"/>
       <use xlink:href="#DejaVuSans-37" x="95.410156"/>
      </g>
     </g>
    </g>
    <g id="ytick_9">
     <g id="line2d_14">
      <g>
       <use xlink:href="#m981cbf26a8" x="47.855" y="38.09125" style="stroke: #000000; stroke-width: 0.8"/>
      </g>
     </g>
     <g id="text_15">
      <!-- 0.8 -->
      <g transform="translate(24.951875 41.890469) scale(0.1 -0.1)">
       <defs>
        <path id="DejaVuSans-38" d="M 2034 2216 
Q 1584 2216 1326 1975 
Q 1069 1734 1069 1313 
Q 1069 891 1326 650 
Q 1584 409 2034 409 
Q 2484 409 2743 651 
Q 3003 894 3003 1313 
Q 3003 1734 2745 1975 
Q 2488 2216 2034 2216 
z
M 1403 2484 
Q 997 2584 770 2862 
Q 544 3141 544 3541 
Q 544 4100 942 4425 
Q 1341 4750 2034 4750 
Q 2731 4750 3128 4425 
Q 3525 4100 3525 3541 
Q 3525 3141 3298 2862 
Q 3072 2584 2669 2484 
Q 3125 2378 3379 2068 
Q 3634 1759 3634 1313 
Q 3634 634 3220 271 
Q 2806 -91 2034 -91 
Q 1263 -91 848 271 
Q 434 634 434 1313 
Q 434 1759 690 2068 
Q 947 2378 1403 2484 
z
M 1172 3481 
Q 1172 3119 1398 2916 
Q 1625 2713 2034 2713 
Q 2441 2713 2670 2916 
Q 2900 3119 2900 3481 
Q 2900 3844 2670 4047 
Q 2441 4250 2034 4250 
Q 1625 4250 1398 4047 
Q 1172 3844 1172 3481 
z
" transform="scale(0.015625)"/>
       </defs>
       <use xlink:href="#DejaVuSans-30"/>
       <use xlink:href="#DejaVuSans-2e" x="63.623047"/>
       <use xlink:href="#DejaVuSans-38" x="95.410156"/>
      </g>
     </g>
    </g>
    <g id="text_16">
     <!-- Probability Density -->
     <g transform="translate(18.872188 211.926562) rotate(-90) scale(0.1 -0.1)">
      <defs>
       <path id="DejaVuSans-50" d="M 1259 4147 
L 1259 2394 
L 2053 2394 
Q 2494 2394 2734 2622 
Q 2975 2850 2975 3272 
Q 2975 3691 2734 3919 
Q 2494 4147 2053 4147 
L 1259 4147 
z
M 628 4666 
L 2053 4666 
Q 2838 4666 3239 4311 
Q 3641 3956 3641 3272 
Q 3641 2581 3239 2228 
Q 2838 1875 2053 1875 
L 1259 1875 
L 1259 0 
L 628 0 
L 628 4666 
z
" transform="scale(0.015625)"/>
       <path id="DejaVuSans-72" d="M 2631 2963 
Q 2534 3019 2420 3045 
Q 2306 3072 2169 3072 
Q 1681 3072 1420 2755 
Q 1159 2438 1159 1844 
L 1159 0 
L 581 0 
L 581 3500 
L 1159 3500 
L 1159 2956 
Q 1341 3275 1631 3429 
Q 1922 3584 2338 3584 
Q 2397 3584 2469 3576 
Q 2541 3569 2628 3553 
L 2631 2963 
z
" transform="scale(0.015625)"/>
       <path id="DejaVuSans-6f" d="M 1959 3097 
Q 1497 3097 1228 2736 
Q 959 2375 959 1747 
Q 959 1119 1226 758 
Q 1494 397 1959 397 
Q 2419 397 2687 759 
Q 2956 1122 2956 1747 
Q 2956 2369 2687 2733 
Q 2419 3097 1959 3097 
z
M 1959 3584 
Q 2709 3584 3137 3096 
Q 3566 2609 3566 1747 
Q 3566 888 3137 398 
Q 2709 -91 1959 -91 
Q 1206 -91 779 398 
Q 353 888 353 1747 
Q 353 2609 779 3096 
Q 1206 3584 1959 3584 
z
" transform="scale(0.015625)"/>
       <path id="DejaVuSans-62" d="M 3116 1747 
Q 3116 2381 2855 2742 
Q 2594 3103 2138 3103 
Q 1681 3103 1420 2742 
Q 1159 2381 1159 1747 
Q 1159 1113 1420 752 
Q 1681 391 2138 391 
Q 2594 391 2855 752 
Q 3116 1113 3116 1747 
z
M 1159 2969 
Q 1341 3281 1617 3432 
Q 1894 3584 2278 3584 
Q 2916 3584 3314 3078 
Q 3713 2572 3713 1747 
Q 3713 922 3314 415 
Q 2916 -91 2278 -91 
Q 1894 -91 1617 61 
Q 1341 213 1159 525 
L 1159 0 
L 581 0 
L 581 4863 
L 1159 4863 
L 1159 2969 
z
" transform="scale(0.015625)"/>
       <path id="DejaVuSans-61" d="M 2194 1759 
Q 1497 1759 1228 1600 
Q 959 1441 959 1056 
Q 959 750 1161 570 
Q 1363 391 1709 391 
Q 2188 391 2477 730 
Q 2766 1069 2766 1631 
L 2766 1759 
L 2194 1759 
z
M 3341 1997 
L 3341 0 
L 2766 0 
L 2766 531 
Q 2569 213 2275 61 
Q 1981 -91 1556 -91 
Q 1019 -91 701 211 
Q 384 513 384 1019 
Q 384 1609 779 1909 
Q 1175 2209 1959 2209 
L 2766 2209 
L 2766 2266 
Q 2766 2663 2505 2880 
Q 2244 3097 1772 3097 
Q 1472 3097 1187 3025 
Q 903 2953 641 2809 
L 641 3341 
Q 956 3463 1253 3523 
Q 1550 3584 1831 3584 
Q 2591 3584 2966 3190 
Q 3341 2797 3341 1997 
z
" transform="scale(0.015625)"/>
       <path id="DejaVuSans-69" d="M 603 3500 
L 1178 3500 
L 1178 0 
L 603 0 
L 603 3500 
z
M 603 4863 
L 1178 4863 
L 1178 4134 
L 603 4134 
L 603 4863 
z
" transform="scale(0.015625)"/>
       <path id="DejaVuSans-6c" d="M 603 4863 
L 1178 4863 
L 1178 0 
L 603 0 
L 603 4863 
z
" transform="scale(0.015625)"/>
       <path id="DejaVuSans-74" d="M 1172 4494 
L 1172 3500 
L 2356 3500 
L 2356 3053 
L 1172 3053 
L 1172 1153 
Q 1172 725 1289 603 
Q 1406 481 1766 481 
L 2356 481 
L 2356 0 
L 1766 0 
Q 1100 0 847 248 
Q 594 497 594 1153 
L 594 3053 
L 172 3053 
L 172 3500 
L 594 3500 
L 594 4494 
L 1172 4494 
z
" transform="scale(0.015625)"/>
       <path id="DejaVuSans-79" d="M 2059 -325 
Q 1816 -950 1584 -1140 
Q 1353 -1331 966 -1331 
L 506 -1331 
L 506 -850 
L 844 -850 
Q 1081 -850 1212 -737 
Q 1344 -625 1503 -206 
L 1606 56 
L 191 3500 
L 800 3500 
L 1894 763 
L 2988 3500 
L 3597 3500 
L 2059 -325 
z
" transform="scale(0.015625)"/>
       <path id="DejaVuSans-20" transform="scale(0.015625)"/>
       <path id="DejaVuSans-44" d="M 1259 4147 
L 1259 519 
L 2022 519 
Q 2988 519 3436 956 
Q 3884 1394 3884 2338 
Q 3884 3275 3436 3711 
Q 2988 4147 2022 4147 
L 1259 4147 
z
M 628 4666 
L 1925 4666 
Q 3281 4666 3915 4102 
Q 4550 3538 4550 2338 
Q 4550 1131 3912 565 
Q 3275 0 1925 0 
L 628 0 
L 628 4666 
z
" transform="scale(0.015625)"/>
       <path id="DejaVuSans-65" d="M 3597 1894 
L 3597 1613 
L 953 1613 
Q 991 1019 1311 708 
Q 1631 397 2203 397 
Q 2534 397 2845 478 
Q 3156 559 3463 722 
L 3463 178 
Q 3153 47 2828 -22 
Q 2503 -91 2169 -91 
Q 1331 -91 842 396 
Q 353 884 353 1716 
Q 353 2575 817 3079 
Q 1281 3584 2069 3584 
Q 2775 3584 3186 3129 
Q 3597 2675 3597 1894 
z
M 3022 2063 
Q 3016 2534 2758 2815 
Q 2500 3097 2075 3097 
Q 1594 3097 1305 2825 
Q 1016 2553 972 2059 
L 3022 2063 
z
" transform="scale(0.015625)"/>
       <path id="DejaVuSans-6e" d="M 3513 2113 
L 3513 0 
L 2938 0 
L 2938 2094 
Q 2938 2591 2744 2837 
Q 2550 3084 2163 3084 
Q 1697 3084 1428 2787 
Q 1159 2491 1159 1978 
L 1159 0 
L 581 0 
L 581 3500 
L 1159 3500 
L 1159 2956 
Q 1366 3272 1645 3428 
Q 1925 3584 2291 3584 
Q 2894 3584 3203 3211 
Q 3513 2838 3513 2113 
z
" transform="scale(0.015625)"/>
       <path id="DejaVuSans-73" d="M 2834 3397 
L 2834 2853 
Q 2591 2978 2328 3040 
Q 2066 3103 1784 3103 
Q 1356 3103 1142 2972 
Q 928 2841 928 2578 
Q 928 2378 1081 2264 
Q 1234 2150 1697 2047 
L 1894 2003 
Q 2506 1872 2764 1633 
Q 3022 1394 3022 966 
Q 3022 478 2636 193 
Q 2250 -91 1575 -91 
Q 1294 -91 989 -36 
Q 684 19 347 128 
L 347 722 
Q 666 556 975 473 
Q 1284 391 1588 391 
Q 1994 391 2212 530 
Q 2431 669 2431 922 
Q 2431 1156 2273 1281 
Q 2116 1406 1581 1522 
L 1381 1569 
Q 847 1681 609 1914 
Q 372 2147 372 2553 
Q 372 3047 722 3315 
Q 1072 3584 1716 3584 
Q 2034 3584 2315 3537 
Q 2597 3491 2834 3397 
z
" transform="scale(0.015625)"/>
      </defs>
      <use xlink:href="#DejaVuSans-50"/>
      <use xlink:href="#DejaVuSans-72" x="58.552734"/>
      <use xlink:href="#DejaVuSans-6f" x="97.416016"/>
      <use xlink:href="#DejaVuSans-62" x="158.597656"/>
      <use xlink:href="#DejaVuSans-61" x="222.074219"/>
      <use xlink:href="#DejaVuSans-62" x="283.353516"/>
      <use xlink:href="#DejaVuSans-69" x="346.830078"/>
      <use xlink:href="#DejaVuSans-6c" x="374.613281"/>
      <use xlink:href="#DejaVuSans-69" x="402.396484"/>
      <use xlink:href="#DejaVuSans-74" x="430.179688"/>
      <use xlink:href="#DejaVuSans-79" x="469.388672"/>
      <use xlink:href="#DejaVuSans-20" x="528.568359"/>
      <use xlink:href="#DejaVuSans-44" x="560.355469"/>
      <use xlink:href="#DejaVuSans-65" x="637.357422"/>
      <use xlink:href="#DejaVuSans-6e" x="698.880859"/>
      <use xlink:href="#DejaVuSans-73" x="762.259766"/>
      <use xlink:href="#DejaVuSans-69" x="814.359375"/>
      <use xlink:href="#DejaVuSans-74" x="842.142578"/>
      <use xlink:href="#DejaVuSans-79" x="881.351562"/>
     </g>
    </g>
   </g>
   <g id="line2d_15">
    <path d="M 66.134318 291.026803 
L 111.878358 290.915268 
L 123.588832 290.673719 
L 131.639783 290.293061 
L 137.860972 289.778072 
L 142.984305 289.133757 
L 147.375732 288.364636 
L 151.401208 287.43381 
L 155.060731 286.357362 
L 158.354302 285.165839 
L 161.647873 283.729769 
L 164.575491 282.220614 
L 167.50311 280.467296 
L 170.430728 278.445852 
L 173.358347 276.133272 
L 176.285965 273.508326 
L 179.213584 270.552478 
L 182.141202 267.250873 
L 185.068821 263.593372 
L 187.996439 259.575583 
L 190.924058 255.199868 
L 194.217629 249.862177 
L 197.5112 244.111585 
L 201.170723 237.289105 
L 205.562151 228.611203 
L 211.78334 215.748565 
L 219.834291 199.127724 
L 223.859766 191.317951 
L 227.153337 185.39388 
L 230.080956 180.588257 
L 232.642622 176.806774 
L 234.838336 173.921139 
L 237.03405 171.39492 
L 238.863811 169.58326 
L 240.693573 168.052603 
L 242.523334 166.814199 
L 244.353096 165.877219 
L 245.816905 165.349426 
L 247.280715 165.021582 
L 248.744524 164.895261 
L 250.208333 164.971069 
L 251.672142 165.248642 
L 253.135952 165.726647 
L 254.599761 166.402795 
L 256.429522 167.52161 
L 258.259284 168.936601 
L 260.089046 170.637338 
L 261.918807 172.611387 
L 264.114521 175.320796 
L 266.310235 178.375305 
L 268.871901 182.333813 
L 271.79952 187.313192 
L 275.093091 193.394121 
L 279.118566 201.338334 
L 285.339755 214.217062 
L 293.390706 230.822559 
L 297.782134 239.379649 
L 301.441657 246.072057 
L 305.10118 252.287401 
L 308.394751 257.432029 
L 311.32237 261.629535 
L 314.249988 265.467031 
L 317.177607 268.945651 
L 320.105225 272.072791 
L 323.032844 274.861078 
L 325.960463 277.327333 
L 328.888081 279.49156 
L 331.8157 281.375987 
L 334.743318 283.004197 
L 337.670937 284.400356 
L 340.964507 285.723627 
L 344.258078 286.816977 
L 347.917601 287.80044 
L 351.943077 288.646815 
L 356.334505 289.342548 
L 361.457837 289.922036 
L 367.679027 290.382087 
L 375.364025 290.708452 
L 385.976642 290.915268 
L 404.274258 291.012137 
L 431.720682 291.026803 
L 431.720682 291.026803 
" clip-path="url(#p5eca54dead)" style="fill: none; stroke: #1f77b4; stroke-width: 1.5; stroke-linecap: square"/>
   </g>
   <g id="line2d_16">
    <path d="M 66.134318 291.027273 
L 184.702869 290.918584 
L 196.779295 290.671284 
L 204.830246 290.288332 
L 211.051435 289.770453 
L 216.174768 289.122743 
L 220.566196 288.349793 
L 224.591671 287.414575 
L 228.251194 286.333305 
L 231.544765 285.136706 
L 234.838336 283.694821 
L 237.765954 282.179858 
L 240.693573 280.420126 
L 243.621191 278.391679 
L 246.54881 276.071539 
L 249.476428 273.438533 
L 252.404047 270.474204 
L 255.331666 267.163804 
L 258.259284 263.497323 
L 261.186903 259.470527 
L 264.114521 255.085959 
L 267.408092 249.738744 
L 270.701663 243.979396 
L 274.361186 237.148491 
L 278.752614 228.46293 
L 284.973803 215.595439 
L 293.024754 198.981378 
L 297.05023 191.181182 
L 300.3438 185.268061 
L 303.271419 180.47444 
L 305.833085 176.705098 
L 308.028799 173.830987 
L 310.224513 171.317218 
L 312.054275 169.516557 
L 313.884036 167.997388 
L 315.713798 166.770879 
L 317.543559 165.846115 
L 319.007369 165.328268 
L 320.471178 165.010471 
L 321.934987 164.89425 
L 323.398796 164.980163 
L 324.862606 165.267797 
L 326.326415 165.755772 
L 327.790224 166.44175 
L 329.619986 167.572585 
L 331.449747 168.999221 
L 333.279509 170.711141 
L 335.10927 172.695838 
L 337.304984 175.417216 
L 339.500698 178.482713 
L 342.062364 182.452679 
L 344.989983 187.443221 
L 348.283554 193.534111 
L 352.309029 201.486674 
L 358.530219 214.370221 
L 366.58117 230.969091 
L 370.972597 239.517742 
L 374.632121 246.201241 
L 377.925691 251.809036 
L 381.219262 256.992645 
L 384.146881 261.225945 
L 387.074499 265.099502 
L 390.002118 268.613772 
L 392.929736 271.77557 
L 395.857355 274.597047 
L 398.784973 277.09465 
L 401.712592 279.288108 
L 404.64021 281.19947 
L 407.567829 282.852219 
L 410.495447 284.270493 
L 413.789018 285.615793 
L 417.082589 286.728272 
L 420.742112 287.729813 
L 424.767588 288.592567 
L 429.159016 289.302497 
L 431.720682 289.626055 
L 431.720682 289.626055 
" clip-path="url(#p5eca54dead)" style="fill: none; stroke: #ff7f0e; stroke-width: 1.5; stroke-linecap: square"/>
   </g>
   <g id="line2d_17">
    <path d="M 66.134318 291.027273 
L 177.01787 290.91729 
L 182.507155 290.684661 
L 186.166678 290.332203 
L 189.094296 289.838014 
L 191.655963 289.1642 
L 193.851676 288.332362 
L 195.681438 287.401897 
L 197.5112 286.198797 
L 198.975009 284.998312 
L 200.438818 283.547475 
L 201.902627 281.806822 
L 203.366437 279.73375 
L 204.830246 277.283003 
L 206.294055 274.407357 
L 207.757864 271.05852 
L 209.221674 267.188275 
L 210.685483 262.749838 
L 212.149292 257.699448 
L 213.979054 250.467158 
L 215.808815 242.157564 
L 217.638577 232.732625 
L 219.468339 222.183293 
L 221.664052 208.079153 
L 223.859766 192.517175 
L 226.421433 172.810073 
L 230.080956 142.765969 
L 235.204288 100.713255 
L 237.765954 81.664999 
L 239.595716 69.581379 
L 241.059525 61.07918 
L 242.523334 53.77688 
L 243.621191 49.16836 
L 244.719048 45.358101 
L 245.816905 42.386336 
L 246.54881 40.886999 
L 247.280715 39.781743 
L 248.012619 39.075857 
L 248.744524 38.772727 
L 249.476428 38.873811 
L 250.208333 39.378622 
L 250.940238 40.284736 
L 251.672142 41.587812 
L 252.404047 43.28162 
L 253.501904 46.536838 
L 254.599761 50.618058 
L 255.697618 55.482345 
L 257.161427 63.097863 
L 258.625236 71.877047 
L 260.454998 84.250197 
L 262.650712 100.713255 
L 265.944283 127.468469 
L 272.165472 178.586856 
L 274.727138 197.855231 
L 276.922852 212.950363 
L 279.118566 226.537143 
L 280.948328 236.637742 
L 282.778089 245.613695 
L 284.607851 253.486389 
L 286.437612 260.303707 
L 288.267374 266.133708 
L 289.731183 270.141704 
L 291.194992 273.616404 
L 292.658802 276.605802 
L 294.122611 279.158287 
L 295.58642 281.321445 
L 297.05023 283.141096 
L 298.514039 284.660558 
L 300.3438 286.198797 
L 302.173562 287.401897 
L 304.003324 288.332362 
L 306.199037 289.1642 
L 308.394751 289.757725 
L 310.956418 290.230408 
L 314.249988 290.601873 
L 318.641416 290.85212 
L 325.59451 290.989081 
L 343.160221 291.026845 
L 431.720682 291.027273 
L 431.720682 291.027273 
" clip-path="url(#p5eca54dead)" style="fill: none; stroke: #2ca02c; stroke-width: 1.5; stroke-linecap: square"/>
   </g>
   <g id="line2d_18">
    <path d="M 66.134318 290.889315 
L 89.555266 290.625146 
L 106.023121 290.224919 
L 118.831452 289.701497 
L 129.810021 289.037472 
L 139.324781 288.249369 
L 148.107637 287.30378 
L 156.158588 286.218035 
L 163.843587 284.956571 
L 171.162633 283.526192 
L 178.115727 281.94104 
L 185.068821 280.119992 
L 191.655963 278.166976 
L 198.243104 275.986829 
L 204.830246 273.57928 
L 211.78334 270.797603 
L 219.102386 267.61894 
L 226.787385 264.035102 
L 235.57024 259.689466 
L 248.012619 253.25393 
L 264.114521 244.949491 
L 272.165472 241.053009 
L 278.752614 238.100575 
L 284.607851 235.708282 
L 290.097136 233.702236 
L 295.220468 232.064943 
L 299.977848 230.768254 
L 304.735228 229.703212 
L 309.126656 228.937139 
L 313.518084 228.387859 
L 317.909512 228.06126 
L 322.300939 227.960864 
L 326.692367 228.087753 
L 331.083795 228.440559 
L 335.475223 229.01548 
L 339.866651 229.806356 
L 344.624031 230.897027 
L 349.381411 232.217762 
L 354.504743 233.878878 
L 359.994028 235.907746 
L 365.849265 238.320996 
L 372.436407 241.292539 
L 380.121405 245.022612 
L 390.36807 250.270967 
L 412.691161 261.782025 
L 421.474017 266.009537 
L 429.159016 269.460944 
L 431.720682 270.552482 
L 431.720682 270.552482 
" clip-path="url(#p5eca54dead)" style="fill: none; stroke: #d62728; stroke-width: 1.5; stroke-linecap: square"/>
   </g>
   <g id="patch_3">
    <path d="M 47.855 303.64 
L 47.855 26.16 
" style="fill: none; stroke: #000000; stroke-width: 0.8; stroke-linejoin: miter; stroke-linecap: square"/>
   </g>
   <g id="patch_4">
    <path d="M 450 303.64 
L 450 26.16 
" style="fill: none; stroke: #000000; stroke-width: 0.8; stroke-linejoin: miter; stroke-linecap: square"/>
   </g>
   <g id="patch_5">
    <path d="M 47.855 303.64 
L 450 303.64 
" style="fill: none; stroke: #000000; stroke-width: 0.8; stroke-linejoin: miter; stroke-linecap: square"/>
   </g>
   <g id="patch_6">
    <path d="M 47.855 26.16 
L 450 26.16 
" style="fill: none; stroke: #000000; stroke-width: 0.8; stroke-linejoin: miter; stroke-linecap: square"/>
   </g>
   <g id="text_17">
    <!-- Normal Distributions -->
    <g transform="translate(187.182813 20.16) scale(0.12 -0.12)">
     <defs>
      <path id="DejaVuSans-4e" d="M 628 4666 
L 1478 4666 
L 3547 763 
L 3547 4666 
L 4159 4666 
L 4159 0 
L 3309 0 
L 1241 3903 
L 1241 0 
L 628 0 
L 628 4666 
z
" transform="scale(0.015625)"/>
      <path id="DejaVuSans-6d" d="M 3328 2828 
Q 3544 3216 3844 3400 
Q 4144 3584 4550 3584 
Q 5097 3584 5394 3201 
Q 5691 2819 5691 2113 
L 5691 0 
L 5113 0 
L 5113 2094 
Q 5113 2597 4934 2840 
Q 4756 3084 4391 3084 
Q 3944 3084 3684 2787 
Q 3425 2491 3425 1978 
L 3425 0 
L 2847 0 
L 2847 2094 
Q 2847 2600 2669 2842 
Q 2491 3084 2119 3084 
Q 1678 3084 1418 2786 
Q 1159 2488 1159 1978 
L 1159 0 
L 581 0 
L 581 3500 
L 1159 3500 
L 1159 2956 
Q 1356 3278 1631 3431 
Q 1906 3584 2284 3584 
Q 2666 3584 2933 3390 
Q 3200 3197 3328 2828 
z
" transform="scale(0.015625)"/>
      <path id="DejaVuSans-75" d="M 544 1381 
L 544 3500 
L 1119 3500 
L 1119 1403 
Q 1119 906 1312 657 
Q 1506 409 1894 409 
Q 2359 409 2629 706 
Q 2900 1003 2900 1516 
L 2900 3500 
L 3475 3500 
L 3475 0 
L 2900 0 
L 2900 538 
Q 2691 219 2414 64 
Q 2138 -91 1772 -91 
Q 1169 -91 856 284 
Q 544 659 544 1381 
z
M 1991 3584 
L 1991 3584 
z
" transform="scale(0.015625)"/>
     </defs>
     <use xlink:href="#DejaVuSans-4e"/>
     <use xlink:href="#DejaVuSans-6f" x="74.804688"/>
     <use xlink:href="#DejaVuSans-72" x="135.986328"/>
     <use xlink:href="#DejaVuSans-6d" x="175.349609"/>
     <use xlink:href="#DejaVuSans-61" x="272.761719"/>
     <use xlink:href="#DejaVuSans-6c" x="334.041016"/>
     <use xlink:href="#DejaVuSans-20" x="361.824219"/>
     <use xlink:href="#DejaVuSans-44" x="393.611328"/>
     <use xlink:href="#DejaVuSans-69" x="470.613281"/>
     <use xlink:href="#DejaVuSans-73" x="498.396484"/>
     <use xlink:href="#DejaVuSans-74" x="550.496094"/>
     <use xlink:href="#DejaVuSans-72" x="589.705078"/>
     <use xlink:href="#DejaVuSans-69" x="630.818359"/>
     <use xlink:href="#DejaVuSans-62" x="658.601562"/>
     <use xlink:href="#DejaVuSans-75" x="722.078125"/>
     <use xlink:href="#DejaVuSans-74" x="785.457031"/>
     <use xlink:href="#DejaVuSans-69" x="824.666016"/>
     <use xlink:href="#DejaVuSans-6f" x="852.449219"/>
     <use xlink:href="#DejaVuSans-6e" x="913.630859"/>
     <use xlink:href="#DejaVuSans-73" x="977.009766"/>
    </g>
   </g>
   <g id="legend_1">
    <g id="patch_7">
     <path d="M 352.91875 92.8725 
L 443 92.8725 
Q 445 92.8725 445 90.8725 
L 445 33.16 
Q 445 31.16 443 31.16 
L 352.91875 31.16 
Q 350.91875 31.16 350.91875 33.16 
L 350.91875 90.8725 
Q 350.91875 92.8725 352.91875 92.8725 
z
" style="fill: #ffffff; opacity: 0.8; stroke: #cccccc; stroke-linejoin: miter"/>
    </g>
    <g id="line2d_19">
     <path d="M 354.91875 39.258437 
L 364.91875 39.258437 
L 374.91875 39.258437 
" style="fill: none; stroke: #1f77b4; stroke-width: 1.5; stroke-linecap: square"/>
    </g>
    <g id="text_18">
     <!-- µ=0, σ=1 -->
     <g transform="translate(382.91875 42.758437) scale(0.1 -0.1)">
      <defs>
       <path id="DejaVuSans-b5" d="M 544 -1331 
L 544 3500 
L 1119 3500 
L 1119 1325 
Q 1119 872 1334 640 
Q 1550 409 1972 409 
Q 2434 409 2667 671 
Q 2900 934 2900 1459 
L 2900 3500 
L 3475 3500 
L 3475 806 
Q 3475 619 3529 530 
Q 3584 441 3700 441 
Q 3728 441 3778 458 
Q 3828 475 3916 513 
L 3916 50 
Q 3788 -22 3673 -56 
Q 3559 -91 3450 -91 
Q 3234 -91 3106 31 
Q 2978 153 2931 403 
Q 2775 156 2548 32 
Q 2322 -91 2016 -91 
Q 1697 -91 1473 31 
Q 1250 153 1119 397 
L 1119 -1331 
L 544 -1331 
z
" transform="scale(0.015625)"/>
       <path id="DejaVuSans-3d" d="M 678 2906 
L 4684 2906 
L 4684 2381 
L 678 2381 
L 678 2906 
z
M 678 1631 
L 4684 1631 
L 4684 1100 
L 678 1100 
L 678 1631 
z
" transform="scale(0.015625)"/>
       <path id="DejaVuSans-2c" d="M 750 794 
L 1409 794 
L 1409 256 
L 897 -744 
L 494 -744 
L 750 256 
L 750 794 
z
" transform="scale(0.015625)"/>
       <path id="DejaVuSans-3c3" d="M 1959 3044 
Q 1484 3044 1228 2700 
Q 959 2341 959 1747 
Q 959 1119 1226 758 
Q 1494 397 1959 397 
Q 2419 397 2687 759 
Q 2956 1122 2956 1747 
Q 2956 2319 2688 2700 
Q 2441 3044 1959 3044 
z
M 1959 3500 
L 3869 3500 
L 3869 2925 
L 3225 2925 
Q 3566 2438 3566 1747 
Q 3566 888 3138 400 
Q 2709 -91 1959 -91 
Q 1206 -91 781 400 
Q 353 888 353 1747 
Q 353 2613 781 3097 
Q 1134 3500 1959 3500 
z
" transform="scale(0.015625)"/>
      </defs>
      <use xlink:href="#DejaVuSans-b5"/>
      <use xlink:href="#DejaVuSans-3d" x="63.623047"/>
      <use xlink:href="#DejaVuSans-30" x="147.412109"/>
      <use xlink:href="#DejaVuSans-2c" x="211.035156"/>
      <use xlink:href="#DejaVuSans-20" x="242.822266"/>
      <use xlink:href="#DejaVuSans-3c3" x="274.609375"/>
      <use xlink:href="#DejaVuSans-3d" x="337.988281"/>
      <use xlink:href="#DejaVuSans-31" x="421.777344"/>
     </g>
    </g>
    <g id="line2d_20">
     <path d="M 354.91875 53.936562 
L 364.91875 53.936562 
L 374.91875 53.936562 
" style="fill: none; stroke: #ff7f0e; stroke-width: 1.5; stroke-linecap: square"/>
    </g>
    <g id="text_19">
     <!-- µ=2, σ=1 -->
     <g transform="translate(382.91875 57.436562) scale(0.1 -0.1)">
      <use xlink:href="#DejaVuSans-b5"/>
      <use xlink:href="#DejaVuSans-3d" x="63.623047"/>
      <use xlink:href="#DejaVuSans-32" x="147.412109"/>
      <use xlink:href="#DejaVuSans-2c" x="211.035156"/>
      <use xlink:href="#DejaVuSans-20" x="242.822266"/>
      <use xlink:href="#DejaVuSans-3c3" x="274.609375"/>
      <use xlink:href="#DejaVuSans-3d" x="337.988281"/>
      <use xlink:href="#DejaVuSans-31" x="421.777344"/>
     </g>
    </g>
    <g id="line2d_21">
     <path d="M 354.91875 68.614687 
L 364.91875 68.614687 
L 374.91875 68.614687 
" style="fill: none; stroke: #2ca02c; stroke-width: 1.5; stroke-linecap: square"/>
    </g>
    <g id="text_20">
     <!-- µ=0, σ=0.5 -->
     <g transform="translate(382.91875 72.114687) scale(0.1 -0.1)">
      <use xlink:href="#DejaVuSans-b5"/>
      <use xlink:href="#DejaVuSans-3d" x="63.623047"/>
      <use xlink:href="#DejaVuSans-30" x="147.412109"/>
      <use xlink:href="#DejaVuSans-2c" x="211.035156"/>
      <use xlink:href="#DejaVuSans-20" x="242.822266"/>
      <use xlink:href="#DejaVuSans-3c3" x="274.609375"/>
      <use xlink:href="#DejaVuSans-3d" x="337.988281"/>
      <use xlink:href="#DejaVuSans-30" x="421.777344"/>
      <use xlink:href="#DejaVuSans-2e" x="485.400391"/>
      <use xlink:href="#DejaVuSans-35" x="517.1875"/>
     </g>
    </g>
    <g id="line2d_22">
     <path d="M 354.91875 83.292812 
L 364.91875 83.292812 
L 374.91875 83.292812 
" style="fill: none; stroke: #d62728; stroke-width: 1.5; stroke-linecap: square"/>
    </g>
    <g id="text_21">
     <!-- µ=2, σ=2 -->
     <g transform="translate(382.91875 86.792812) scale(0.1 -0.1)">
      <use xlink:href="#DejaVuSans-b5"/>
      <use xlink:href="#DejaVuSans-3d" x="63.623047"/>
      <use xlink:href="#DejaVuSans-32" x="147.412109"/>
      <use xlink:href="#DejaVuSans-2c" x="211.035156"/>
      <use xlink:href="#DejaVuSans-20" x="242.822266"/>
      <use xlink:href="#DejaVuSans-3c3" x="274.609375"/>
      <use xlink:href="#DejaVuSans-3d" x="337.988281"/>
      <use xlink:href="#DejaVuSans-32" x="421.777344"/>
     </g>
    </g>
   </g>
  </g>
 </g>
 <defs>
  <clipPath id="p5eca54dead">
   <rect x="47.855" y="26.16" width="402.145" height="277.48"/>
  </clipPath>
 </defs>
</svg>
